<?xml version="1.0" standalone="no"?><!DOCTYPE svg PUBLIC "-//W3C//DTD SVG 1.1//EN" "http://www.w3.org/Graphics/SVG/1.1/DTD/svg11.dtd"><svg class="icon" width="200px" height="200.00px" viewBox="0 0 1024 1024" version="1.1" xmlns="http://www.w3.org/2000/svg"><path fill="#1296db" d="M566.91 128.04h341.42c11.78 0 21.34 9.55 21.34 21.34V490.8c0 11.78-9.55 21.34-21.34 21.34H566.91c-11.78 0-21.34-9.55-21.34-21.34V149.38c0.01-11.78 9.56-21.34 21.34-21.34zM566.91 575.96h341.42c11.78 0 21.34 9.55 21.34 21.34v341.42c0 11.78-9.55 21.34-21.34 21.34H566.91c-11.78 0-21.34-9.55-21.34-21.34V597.3c0.01-11.78 9.56-21.34 21.34-21.34zM118.96 575.96h341.42c11.78 0 21.34 9.55 21.34 21.34v341.42c0 11.78-9.55 21.34-21.34 21.34H118.96c-11.78 0-21.34-9.55-21.34-21.34V597.3c0-11.78 9.55-21.34 21.34-21.34zM302.56 69.6l206.29 206.29c7.12 7.12 7.12 18.67 0 25.79L302.56 507.96c-7.12 7.12-18.67 7.12-25.79 0L70.49 301.67c-7.12-7.12-7.12-18.67 0-25.79L276.77 69.6c7.12-7.12 18.67-7.12 25.79 0z" /></svg>